<svg width="512" height="512" viewBox="0 0 512 512" fill="none" xmlns="http://www.w3.org/2000/svg">
    <!-- Pozadie s jemným gradientom -->
    <rect width="512" height="512" rx="110" fill="url(#paint0_linear)"/>
    
    <!-- Symbol: Clipboard / Projekt -->
    <path d="M360 160H152C140.954 160 132 168.954 132 180V380C132 391.046 140.954 400 152 400H360C371.046 400 380 391.046 380 380V180C380 168.954 371.046 160 360 160Z" fill="white" fill-opacity="0.2"/>
    <path d="M320 120H192C181 120 172 129 172 140V160H340V140C340 129 331 120 320 120Z" fill="white"/>
    
    <!-- Symbol: Rastúci graf / Progres -->
    <path d="M180 340V300" stroke="white" stroke-width="24" stroke-linecap="round"/>
    <path d="M230 340V260" stroke="white" stroke-width="24" stroke-linecap="round"/>
    <path d="M280 340V220" stroke="white" stroke-width="24" stroke-linecap="round"/>
    <path d="M330 340V280" stroke="white" stroke-width="24" stroke-linecap="round"/>
    
    <!-- Dekoratívny prvkok: Bodka úspechu -->
    <circle cx="330" cy="220" r="15" fill="#FCD34D"/>

    <defs>
        <linearGradient id="paint0_linear" x1="0" y1="0" x2="512" y2="512" gradientUnits="userSpaceOnUse">
            <stop stop-color="#10B981"/>
            <stop offset="1" stop-color="#059669"/>
        </linearGradient>
    </defs>
</svg>
